<mxfile host="app.diagrams.net" agent="Mozilla/5.0 (Windows NT 10.0; Win64; x64) AppleWebKit/537.36 (KHTML, like Gecko) Chrome/136.0.0.0 Safari/537.36" version="27.0.6">
  <diagram name="Page-1" id="IdJxYk8iF5WU8EB2HFbw">
    <mxGraphModel dx="5173" dy="3400" grid="0" gridSize="10" guides="1" tooltips="1" connect="1" arrows="1" fold="1" page="0" pageScale="1" pageWidth="850" pageHeight="1100" math="0" shadow="0">
      <root>
        <mxCell id="0" />
        <mxCell id="1" parent="0" />
        <mxCell id="Iuelgx7-SZ1FgF8hMtg--1" value="领导者节点 (Server)" style="rounded=1;whiteSpace=wrap;html=1;fillColor=#dae8fc;strokeColor=#6c8ebf;fontSize=14;fontStyle=1" vertex="1" parent="1">
          <mxGeometry x="770" y="130" width="200" height="60" as="geometry" />
        </mxCell>
        <mxCell id="Iuelgx7-SZ1FgF8hMtg--2" value="代理节点 (Agent)" style="rounded=1;whiteSpace=wrap;html=1;fillColor=#d5e8d4;strokeColor=#82b366;fontSize=14;fontStyle=1" vertex="1" parent="1">
          <mxGeometry x="770" y="270" width="200" height="60" as="geometry" />
        </mxCell>
        <mxCell id="Iuelgx7-SZ1FgF8hMtg--3" value="" style="edgeStyle=orthogonalEdgeStyle;rounded=0;orthogonalLoop=1;jettySize=auto;html=1;exitX=0.5;exitY=1;exitDx=0;exitDy=0;entryX=0.5;entryY=0;entryDx=0;entryDy=0;fontSize=14;" edge="1" parent="1" source="Iuelgx7-SZ1FgF8hMtg--1" target="Iuelgx7-SZ1FgF8hMtg--2">
          <mxGeometry relative="1" as="geometry" />
        </mxCell>
        <mxCell id="Iuelgx7-SZ1FgF8hMtg--4" value="1. 任务分发 (GRPC)" style="edgeLabel;html=1;align=center;verticalAlign=middle;resizable=0;points=[];fontSize=14;" vertex="1" connectable="0" parent="Iuelgx7-SZ1FgF8hMtg--3">
          <mxGeometry x="-0.2" y="1" relative="1" as="geometry">
            <mxPoint as="offset" />
          </mxGeometry>
        </mxCell>
        <mxCell id="Iuelgx7-SZ1FgF8hMtg--5" value="执行器插件管理器" style="rounded=1;whiteSpace=wrap;html=1;fillColor=#e1d5e7;strokeColor=#9673a6;fontSize=14;" vertex="1" parent="1">
          <mxGeometry x="770" y="390" width="200" height="40" as="geometry" />
        </mxCell>
        <mxCell id="Iuelgx7-SZ1FgF8hMtg--6" value="" style="edgeStyle=orthogonalEdgeStyle;rounded=0;orthogonalLoop=1;jettySize=auto;html=1;exitX=0.5;exitY=1;exitDx=0;exitDy=0;entryX=0.5;entryY=0;entryDx=0;entryDy=0;fontSize=14;" edge="1" parent="1" source="Iuelgx7-SZ1FgF8hMtg--2" target="Iuelgx7-SZ1FgF8hMtg--5">
          <mxGeometry relative="1" as="geometry" />
        </mxCell>
        <mxCell id="Iuelgx7-SZ1FgF8hMtg--7" value="2. 任务解析" style="edgeLabel;html=1;align=center;verticalAlign=middle;resizable=0;points=[];fontSize=14;" vertex="1" connectable="0" parent="Iuelgx7-SZ1FgF8hMtg--6">
          <mxGeometry x="-0.2" y="1" relative="1" as="geometry">
            <mxPoint as="offset" />
          </mxGeometry>
        </mxCell>
        <mxCell id="Iuelgx7-SZ1FgF8hMtg--8" value="Shell执行器插件" style="rounded=1;whiteSpace=wrap;html=1;fillColor=#fff2cc;strokeColor=#d6b656;fontSize=14;" vertex="1" parent="1">
          <mxGeometry x="610" y="490" width="160" height="40" as="geometry" />
        </mxCell>
        <mxCell id="Iuelgx7-SZ1FgF8hMtg--9" value="HTTP执行器插件" style="rounded=1;whiteSpace=wrap;html=1;fillColor=#fff2cc;strokeColor=#d6b656;fontSize=14;" vertex="1" parent="1">
          <mxGeometry x="790" y="490" width="160" height="40" as="geometry" />
        </mxCell>
        <mxCell id="Iuelgx7-SZ1FgF8hMtg--10" value="自定义执行器插件" style="rounded=1;whiteSpace=wrap;html=1;fillColor=#fff2cc;strokeColor=#d6b656;fontSize=14;" vertex="1" parent="1">
          <mxGeometry x="970" y="490" width="160" height="40" as="geometry" />
        </mxCell>
        <mxCell id="Iuelgx7-SZ1FgF8hMtg--11" value="" style="edgeStyle=orthogonalEdgeStyle;rounded=0;orthogonalLoop=1;jettySize=auto;html=1;exitX=0.25;exitY=1;exitDx=0;exitDy=0;entryX=0.5;entryY=0;entryDx=0;entryDy=0;fontSize=14;" edge="1" parent="1" source="Iuelgx7-SZ1FgF8hMtg--5" target="Iuelgx7-SZ1FgF8hMtg--8">
          <mxGeometry relative="1" as="geometry">
            <Array as="points">
              <mxPoint x="820" y="450" />
              <mxPoint x="690" y="450" />
            </Array>
          </mxGeometry>
        </mxCell>
        <mxCell id="Iuelgx7-SZ1FgF8hMtg--12" value="" style="edgeStyle=orthogonalEdgeStyle;rounded=0;orthogonalLoop=1;jettySize=auto;html=1;exitX=0.5;exitY=1;exitDx=0;exitDy=0;entryX=0.5;entryY=0;entryDx=0;entryDy=0;fontSize=14;" edge="1" parent="1" source="Iuelgx7-SZ1FgF8hMtg--5" target="Iuelgx7-SZ1FgF8hMtg--9">
          <mxGeometry relative="1" as="geometry" />
        </mxCell>
        <mxCell id="Iuelgx7-SZ1FgF8hMtg--13" value="" style="edgeStyle=orthogonalEdgeStyle;rounded=0;orthogonalLoop=1;jettySize=auto;html=1;exitX=0.75;exitY=1;exitDx=0;exitDy=0;entryX=0.5;entryY=0;entryDx=0;entryDy=0;fontSize=14;" edge="1" parent="1" source="Iuelgx7-SZ1FgF8hMtg--5" target="Iuelgx7-SZ1FgF8hMtg--10">
          <mxGeometry relative="1" as="geometry">
            <Array as="points">
              <mxPoint x="920" y="450" />
              <mxPoint x="1050" y="450" />
            </Array>
          </mxGeometry>
        </mxCell>
        <mxCell id="Iuelgx7-SZ1FgF8hMtg--14" value="3. 根据任务类型选择执行器" style="edgeLabel;html=1;align=center;verticalAlign=middle;resizable=0;points=[];fontSize=14;" vertex="1" connectable="0" parent="Iuelgx7-SZ1FgF8hMtg--13">
          <mxGeometry x="0.0667" y="1" relative="1" as="geometry">
            <mxPoint x="19" y="-9" as="offset" />
          </mxGeometry>
        </mxCell>
        <mxCell id="Iuelgx7-SZ1FgF8hMtg--15" value="执行结果收集器" style="rounded=1;whiteSpace=wrap;html=1;fillColor=#f8cecc;strokeColor=#b85450;fontSize=14;" vertex="1" parent="1">
          <mxGeometry x="770" y="590" width="200" height="40" as="geometry" />
        </mxCell>
        <mxCell id="Iuelgx7-SZ1FgF8hMtg--16" value="" style="edgeStyle=orthogonalEdgeStyle;rounded=0;orthogonalLoop=1;jettySize=auto;html=1;exitX=0.5;exitY=1;exitDx=0;exitDy=0;entryX=0.25;entryY=0;entryDx=0;entryDy=0;fontSize=14;" edge="1" parent="1" source="Iuelgx7-SZ1FgF8hMtg--8" target="Iuelgx7-SZ1FgF8hMtg--15">
          <mxGeometry relative="1" as="geometry">
            <Array as="points">
              <mxPoint x="690" y="560" />
              <mxPoint x="820" y="560" />
            </Array>
          </mxGeometry>
        </mxCell>
        <mxCell id="Iuelgx7-SZ1FgF8hMtg--17" value="" style="edgeStyle=orthogonalEdgeStyle;rounded=0;orthogonalLoop=1;jettySize=auto;html=1;exitX=0.5;exitY=1;exitDx=0;exitDy=0;entryX=0.5;entryY=0;entryDx=0;entryDy=0;fontSize=14;" edge="1" parent="1" source="Iuelgx7-SZ1FgF8hMtg--9" target="Iuelgx7-SZ1FgF8hMtg--15">
          <mxGeometry relative="1" as="geometry" />
        </mxCell>
        <mxCell id="Iuelgx7-SZ1FgF8hMtg--18" value="" style="edgeStyle=orthogonalEdgeStyle;rounded=0;orthogonalLoop=1;jettySize=auto;html=1;exitX=0.5;exitY=1;exitDx=0;exitDy=0;entryX=0.75;entryY=0;entryDx=0;entryDy=0;fontSize=14;" edge="1" parent="1" source="Iuelgx7-SZ1FgF8hMtg--10" target="Iuelgx7-SZ1FgF8hMtg--15">
          <mxGeometry relative="1" as="geometry">
            <Array as="points">
              <mxPoint x="1050" y="560" />
              <mxPoint x="920" y="560" />
            </Array>
          </mxGeometry>
        </mxCell>
        <mxCell id="Iuelgx7-SZ1FgF8hMtg--19" value="4. 任务执行" style="edgeLabel;html=1;align=center;verticalAlign=middle;resizable=0;points=[];fontSize=14;" vertex="1" connectable="0" parent="Iuelgx7-SZ1FgF8hMtg--18">
          <mxGeometry x="0.0667" y="1" relative="1" as="geometry">
            <mxPoint x="10" y="-10" as="offset" />
          </mxGeometry>
        </mxCell>
        <mxCell id="Iuelgx7-SZ1FgF8hMtg--20" value="" style="edgeStyle=orthogonalEdgeStyle;rounded=0;orthogonalLoop=1;jettySize=auto;html=1;exitX=0;exitY=0.5;exitDx=0;exitDy=0;fontSize=14;" edge="1" parent="1" source="Iuelgx7-SZ1FgF8hMtg--15">
          <mxGeometry relative="1" as="geometry">
            <Array as="points">
              <mxPoint x="598" y="610" />
              <mxPoint x="598" y="321" />
              <mxPoint x="770" y="321" />
            </Array>
            <mxPoint x="770" y="321" as="targetPoint" />
          </mxGeometry>
        </mxCell>
        <mxCell id="Iuelgx7-SZ1FgF8hMtg--21" value="5. 执行结果回传" style="edgeLabel;html=1;align=center;verticalAlign=middle;resizable=0;points=[];fontSize=14;" vertex="1" connectable="0" parent="Iuelgx7-SZ1FgF8hMtg--20">
          <mxGeometry x="0.0533" y="-1" relative="1" as="geometry">
            <mxPoint x="-29" y="31" as="offset" />
          </mxGeometry>
        </mxCell>
        <mxCell id="Iuelgx7-SZ1FgF8hMtg--22" value="" style="edgeStyle=orthogonalEdgeStyle;rounded=0;orthogonalLoop=1;jettySize=auto;html=1;exitX=0;exitY=0.5;exitDx=0;exitDy=0;entryX=0;entryY=0.5;entryDx=0;entryDy=0;fontSize=14;" edge="1" parent="1" source="Iuelgx7-SZ1FgF8hMtg--2" target="Iuelgx7-SZ1FgF8hMtg--1">
          <mxGeometry relative="1" as="geometry">
            <Array as="points">
              <mxPoint x="598" y="300" />
              <mxPoint x="598" y="160" />
            </Array>
          </mxGeometry>
        </mxCell>
        <mxCell id="Iuelgx7-SZ1FgF8hMtg--23" value="6. 结果通知 (GRPC)" style="edgeLabel;html=1;align=center;verticalAlign=middle;resizable=0;points=[];fontSize=14;" vertex="1" connectable="0" parent="Iuelgx7-SZ1FgF8hMtg--22">
          <mxGeometry x="-0.0533" y="-1" relative="1" as="geometry">
            <mxPoint x="-29" y="-20" as="offset" />
          </mxGeometry>
        </mxCell>
        <mxCell id="Iuelgx7-SZ1FgF8hMtg--24" value="执行器接口 (Executor Interface)" style="shape=note;whiteSpace=wrap;html=1;backgroundOutline=1;darkOpacity=0.05;fillColor=#ffe6cc;strokeColor=#d79b00;fontSize=14;size=20;" vertex="1" parent="1">
          <mxGeometry x="1001" y="330" width="132" height="40" as="geometry" />
        </mxCell>
        <mxCell id="Iuelgx7-SZ1FgF8hMtg--25" value="" style="endArrow=none;dashed=1;html=1;rounded=0;entryX=0;entryY=0.5;entryDx=0;entryDy=0;entryPerimeter=0;exitX=1;exitY=0.5;exitDx=0;exitDy=0;fontSize=14;" edge="1" parent="1" source="Iuelgx7-SZ1FgF8hMtg--5" target="Iuelgx7-SZ1FgF8hMtg--24">
          <mxGeometry width="50" height="50" relative="1" as="geometry">
            <mxPoint x="850" y="470" as="sourcePoint" />
            <mxPoint x="900" y="420" as="targetPoint" />
          </mxGeometry>
        </mxCell>
        <mxCell id="Iuelgx7-SZ1FgF8hMtg--63" value="每个执行器都是单独的进程&lt;div&gt;通过RPC进行通信&lt;/div&gt;" style="shape=note;whiteSpace=wrap;html=1;backgroundOutline=1;darkOpacity=0.05;fillColor=#ffe6cc;strokeColor=#d79b00;fontSize=14;size=20;" vertex="1" parent="1">
          <mxGeometry x="1001" y="386" width="176" height="40" as="geometry" />
        </mxCell>
      </root>
    </mxGraphModel>
  </diagram>
</mxfile>
